
Format                           : AVI
Format/Info                      : Audio Video Interleave
File size                        : 68.4 MiB
Duration                         : 4mn 1s
Overall bit rate                 : 2 375 Kbps
Writing library                  : TMPGEnc 4.0 XPress Version. 4.7.4.299

Video
ID                               : 0
Format                           : MPEG-4 Visual
Format profile                   : Advanced Simple@L5
Format settings, BVOP            : Yes
Format settings, QPel            : No
Format settings, GMC             : No warppoints
Format settings, Matrix          : Default (H.263)
Muxing mode                      : Packed bitstream
Codec ID                         : XVID
Codec ID/Hint                    : XviD
Duration                         : 4mn 1s
Bit rate                         : 950 Kbps
Width                            : 532 pixels
Height                           : 300 pixels
Display aspect ratio             : 1.935
Frame rate                       : 25.000 fps
Color space                      : YUV
Chroma subsampling               : 4:2:0
Bit depth                        : 8 bits
Scan type                        : Progressive
Compression mode                 : Lossy
Bits/(Pixel*Frame)               : 0.238
Stream size                      : 27.4 MiB (40%)
Writing library                  : XviD 58

Audio
ID                               : 1
Format                           : PCM
Format settings, Endianness      : Little
Format settings, Sign            : Signed
Codec ID                         : 1
Codec ID/Hint                    : Microsoft
Duration                         : 4mn 1s
Bit rate mode                    : Constant
Bit rate                         : 1 411.2 Kbps
Channel(s)                       : 2 channels
Sampling rate                    : 44.1 KHz
Bit depth                        : 16 bits
Stream size                      : 40.7 MiB (59%)
Interleave, duration             : 40 ms (1.00 video frame)
Interleave, preload duration     : 479 ms

